# xmcd
#
# Track frame offsets:
# 150
# 22980
# 42710
# 56700
# 76953
# 94388
# 110176
# 127751
# 148383
# 169824
# 189157
#
# Disc length: 2768 seconds
#
# Revision: 0
# Processed by: cddbd v1.4PL0 Copyright (c) Steve Scherf et al.
# Submitted via: Audion 3.0.2 (http://www.panic.com/audion/)
#
DISCID=9b0ace0b
DTITLE=Lil Kim - Hollyhood
DYEAR=1900
DGENRE=
TTITLE0=10_commandments
TTITLE1=rock_da_party-remix
TTITLE2=whats_the_word
TTITLE3=gone_delirious
TTITLE4=get_in_touch
TTITLE5=kimnotize
TTITLE6=when_the_last_time-remix
TTITLE7=fresh_from_the_yard
TTITLE8=i_need_that_i_want_that
TTITLE9=can't_hold_us_back
TTITLE10=guess_whos_back_freestyle
EXTD=
EXTT0=
EXTT1=
EXTT2=
EXTT3=
EXTT4=
EXTT5=
EXTT6=
EXTT7=
EXTT8=
EXTT9=
EXTT10=
PLAYORDER=
